<svg width="30" height="21" viewBox="0 0 30 21" fill="none" xmlns="http://www.w3.org/2000/svg">
<path d="M13.9585 20H0.80127V17.3896L7.01074 10.7715C7.86328 9.83984 8.4917 9.02686 8.896 8.33252C9.30908 7.63818 9.51562 6.979 9.51562 6.35498C9.51562 5.50244 9.30029 4.83447 8.86963 4.35107C8.43896 3.85889 7.82373 3.61279 7.02393 3.61279C6.1626 3.61279 5.48145 3.91162 4.98047 4.50928C4.48828 5.09814 4.24219 5.87598 4.24219 6.84277H0.418945C0.418945 5.67383 0.695801 4.60596 1.24951 3.63916C1.81201 2.67236 2.60303 1.9165 3.62256 1.37158C4.64209 0.817871 5.79785 0.541016 7.08984 0.541016C9.06738 0.541016 10.6011 1.01562 11.6909 1.96484C12.7896 2.91406 13.3389 4.25439 13.3389 5.98584C13.3389 6.93506 13.0928 7.90186 12.6006 8.88623C12.1084 9.87061 11.2646 11.0176 10.0693 12.3271L5.70557 16.9282H13.9585V20ZM20.1812 8.71484H22.2114C23.1782 8.71484 23.8945 8.47314 24.3604 7.98975C24.8262 7.50635 25.0591 6.86475 25.0591 6.06494C25.0591 5.2915 24.8262 4.68945 24.3604 4.25879C23.9033 3.82812 23.2705 3.61279 22.4619 3.61279C21.7324 3.61279 21.1216 3.81494 20.6294 4.21924C20.1372 4.61475 19.8911 5.1333 19.8911 5.7749H16.0811C16.0811 4.77295 16.3491 3.87646 16.8853 3.08545C17.4302 2.28564 18.186 1.66162 19.1528 1.21338C20.1284 0.765137 21.2007 0.541016 22.3696 0.541016C24.3999 0.541016 25.9907 1.02881 27.1421 2.00439C28.2935 2.97119 28.8691 4.30713 28.8691 6.01221C28.8691 6.89111 28.6011 7.69971 28.0649 8.43799C27.5288 9.17627 26.8257 9.74316 25.9556 10.1387C27.0366 10.5254 27.8408 11.1055 28.3682 11.8789C28.9043 12.6523 29.1724 13.5664 29.1724 14.6211C29.1724 16.3262 28.5483 17.6929 27.3003 18.7212C26.061 19.7495 24.4175 20.2637 22.3696 20.2637C20.4536 20.2637 18.8848 19.7583 17.6631 18.7476C16.4502 17.7368 15.8438 16.4009 15.8438 14.7397H19.6538C19.6538 15.4604 19.9219 16.0493 20.458 16.5063C21.0029 16.9634 21.6709 17.1919 22.4619 17.1919C23.3672 17.1919 24.0747 16.9546 24.5845 16.48C25.103 15.9966 25.3623 15.3594 25.3623 14.5684C25.3623 12.6523 24.3076 11.6943 22.1982 11.6943H20.1812V8.71484Z" fill="#717CFF"/>
</svg>
