<svg width="19" height="18" viewBox="0 0 19 18" fill="none" xmlns="http://www.w3.org/2000/svg">
<path d="M1.48109 10.0834H14.582L8.85841 15.3701C8.401 15.7926 8.401 16.4859 8.85841 16.9084C9.31583 17.3309 10.0547 17.3309 10.5122 16.9084L18.2413 9.76926C18.6987 9.34676 18.6987 8.66426 18.2413 8.24176L10.5239 1.09176C10.3048 0.888905 10.0073 0.774902 9.69701 0.774902C9.38677 0.774902 9.08927 0.888905 8.87014 1.09176C8.41272 1.51426 8.41272 2.19676 8.87014 2.61926L14.582 7.91676H1.48109C0.836017 7.91676 0.308228 8.40426 0.308228 9.0001C0.308228 9.59593 0.836017 10.0834 1.48109 10.0834Z" fill="#37474F"/>
</svg>
