<?xml version="1.0" encoding="utf-8"?>
<!-- Generator: Adobe Illustrator 21.0.0, SVG Export Plug-In . SVG Version: 6.00 Build 0)  -->
<svg version="1.1" xmlns="http://www.w3.org/2000/svg" xmlns:xlink="http://www.w3.org/1999/xlink" x="0px" y="0px"
	 viewBox="0 0 512 512" style="enable-background:new 0 0 512 512;" xml:space="preserve">
<style type="text/css">
	.st0{display:none;}
	.st1{opacity:0.66;fill:#C2000B;}
	.st2{opacity:0.6;fill:#4FA0CA;}
</style>
<g id="Layer_1" class="st0">
	
		<image style="display:inline;overflow:visible;" width="512" height="512" xlink:href="Icons/Social Media Pack/Slike/4202090instagramlogosocialsocialmedia-115598_115703.png" >
	</image>
</g>
<g id="Layer_2">
</g>
<g id="Layer_4">
	<path class="st1" d="M317.8,38.5H146.9c-72.7,0-131.7,59-131.7,131.7v169.3c0,72.7,59,131.7,131.7,131.7h170.9
		c72.7,0,131.7-59,131.7-131.7V170.2C449.5,97.5,390.5,38.5,317.8,38.5z M411.1,325.4c0,59.9-48.5,108.4-108.4,108.4H162
		c-59.9,0-108.4-48.5-108.4-108.4V186.1c0-59.9,48.5-108.4,108.4-108.4h140.7c59.9,0,108.4,48.5,108.4,108.4V325.4z"/>
	<path class="st2" d="M367.9,38.5H197c-72.7,0-131.7,59-131.7,131.7v169.3c0,72.7,59,131.7,131.7,131.7h170.9
		c72.7,0,131.7-59,131.7-131.7V170.2C499.6,97.5,440.7,38.5,367.9,38.5z M461.2,325.4c0,59.9-48.5,108.4-108.4,108.4H212.2
		c-59.9,0-108.4-48.5-108.4-108.4V186.1c0-59.9,48.5-108.4,108.4-108.4h140.7c59.9,0,108.4,48.5,108.4,108.4V325.4z"/>
</g>
<g id="Layer_3">
	<path d="M339.7,37.7H168.8c-72.7,0-131.7,59-131.7,131.7v169.3c0,72.7,59,131.7,131.7,131.7h170.9c72.7,0,131.7-59,131.7-131.7
		V169.4C471.4,96.6,412.5,37.7,339.7,37.7z M433,324.6c0,59.9-48.5,108.4-108.4,108.4H183.9c-59.9,0-108.4-48.5-108.4-108.4V185.3
		c0-59.9,48.5-108.4,108.4-108.4h140.7c59.9,0,108.4,48.5,108.4,108.4V324.6z"/>
	<path d="M255.8,119.6c-74.7,0-135.2,60.5-135.2,135.2s60.5,135.2,135.2,135.2S391,329.5,391,254.8S330.5,119.6,255.8,119.6z
		 M255.8,339.1c-46.5,0-84.3-37.7-84.3-84.3c0-46.5,37.7-84.3,84.3-84.3s84.3,37.7,84.3,84.3C340,301.4,302.3,339.1,255.8,339.1z"/>
	<circle cx="382.1" cy="119.6" r="17.8"/>
</g>
</svg>
